<svg xmlns="http://www.w3.org/2000/svg" viewBox="0 0 200 200">
 <defs>
  <symbol id="coffee" viewBox="0 0 200 200"><rect x="42" y="25" width="116" height="145" rx="14" fill="none" stroke="currentColor" stroke-width="8"/><rect x="61" y="44" width="78" height="35" rx="5" fill="currentColor" opacity=".2"/><path d="M68 95h64M82 96v39h36V96M118 106h15c14 0 14 21 0 21h-15M70 148h60" fill="none" stroke="currentColor" stroke-width="7" stroke-linecap="round"/><circle cx="74" cy="61" r="5" fill="currentColor"/></symbol>
  <symbol id="cooking" viewBox="0 0 200 200"><path d="M27 145h146M44 145V74h112v71M57 74V57h86v17M62 93h76v36H62zM94 94v35M78 44v-9M100 44v-9M122 44v-9" fill="none" stroke="currentColor" stroke-width="8" stroke-linecap="round" stroke-linejoin="round"/><circle cx="159" cy="100" r="4" fill="currentColor"/><circle cx="159" cy="118" r="4" fill="currentColor"/></symbol>
  <symbol id="icecream" viewBox="0 0 200 200"><rect x="38" y="27" width="124" height="145" rx="11" fill="none" stroke="currentColor" stroke-width="8"/><path d="M62 55h76M100 55v24m-21 8c0-9 7-14 16-13 5-12 24-10 26 2 10 1 16 12 12 20H72c-3-4-1-9 7-9zm4 13h34l-17 42zM61 150h78" fill="none" stroke="currentColor" stroke-width="7" stroke-linecap="round" stroke-linejoin="round"/></symbol>
  <symbol id="vending" viewBox="0 0 200 200"><rect x="38" y="20" width="124" height="157" rx="10" fill="none" stroke="currentColor" stroke-width="8"/><rect x="54" y="38" width="72" height="92" rx="4" fill="none" stroke="currentColor" stroke-width="6"/><path d="M66 63h48M66 92h48M79 48v69M103 48v69M137 58h13M137 78h13M137 98h13M130 145h20M55 146h59" fill="none" stroke="currentColor" stroke-width="6" stroke-linecap="round"/></symbol>
  <symbol id="robot" viewBox="0 0 200 200"><path d="M58 139V83c0-18 17-32 42-32s42 14 42 32v56M58 139h84M73 139l-8 23h70l-8-23M99 52V36M89 34h21" fill="none" stroke="currentColor" stroke-width="8" stroke-linecap="round" stroke-linejoin="round"/><rect x="75" y="82" width="50" height="28" rx="12" fill="none" stroke="currentColor" stroke-width="7"/><circle cx="87" cy="96" r="4" fill="currentColor"/><circle cx="113" cy="96" r="4" fill="currentColor"/></symbol>
  <symbol id="hotel" viewBox="0 0 200 200"><path d="M42 161V42h116v119M29 161h142M62 64h24v20H62zM114 64h24v20h-24zM62 99h24v20H62zM114 99h24v20h-24zM88 161v-26h24v26" fill="none" stroke="currentColor" stroke-width="8" stroke-linecap="round" stroke-linejoin="round"/></symbol>
 </defs>
</svg>
